<?xml version="1.0" encoding="UTF-8" standalone="no"?>
<!-- Created with Inkscape (http://www.inkscape.org/) -->

<svg
   xmlns:dc="http://purl.org/dc/elements/1.1/"
   xmlns:cc="http://creativecommons.org/ns#"
   xmlns:rdf="http://www.w3.org/1999/02/22-rdf-syntax-ns#"
   xmlns:svg="http://www.w3.org/2000/svg"
   xmlns="http://www.w3.org/2000/svg"
   xmlns:sodipodi="http://sodipodi.sourceforge.net/DTD/sodipodi-0.dtd"
   xmlns:inkscape="http://www.inkscape.org/namespaces/inkscape"
   id="svg4494"
   version="1.1"
   inkscape:version="0.91 r13725"
   xml:space="preserve"
   width="310.22824"
   height="186.58136"
   viewBox="0 0 310.22824 186.58136"
   sodipodi:docname="instrumentation-overview.svg"><metadata
     id="metadata4500"><rdf:RDF><cc:Work
         rdf:about=""><dc:format>image/svg+xml</dc:format><dc:type
           rdf:resource="http://purl.org/dc/dcmitype/StillImage" /><dc:title></dc:title></cc:Work></rdf:RDF></metadata><defs
     id="defs4498" /><sodipodi:namedview
     pagecolor="#ffffff"
     bordercolor="#666666"
     borderopacity="1"
     objecttolerance="10"
     gridtolerance="10"
     guidetolerance="10"
     inkscape:pageopacity="0"
     inkscape:pageshadow="2"
     inkscape:window-width="1920"
     inkscape:window-height="1027"
     id="namedview4496"
     showgrid="false"
     inkscape:zoom="1.668456"
     inkscape:cx="87.691893"
     inkscape:cy="73.174469"
     inkscape:window-x="0"
     inkscape:window-y="0"
     inkscape:window-maximized="1"
     inkscape:current-layer="g4504" /><g
     id="g4502"
     inkscape:groupmode="layer"
     inkscape:label="instrumentation-overview"
     transform="matrix(1.25,0,0,1.25,0,-3.75e-6)"><g
       id="g4504"><path
         d="M 46.563,9.629 37.438,0.301 C 37.246,0.109 36.988,0 36.719,0 L 17.461,0 c -1.676,0 -3.043,1.395 -3.043,3.109 l 0,33.161 c 0,1.714 1.367,3.109 3.043,3.109 l 26.355,0 c 1.676,0 3.039,-1.395 3.039,-3.109 l 0,-25.907 c 0,-0.277 -0.105,-0.539 -0.292,-0.734 z m -2.153,0.734 -6.676,0 c -0.558,0 -1.015,-0.465 -1.015,-1.035 l 0,-6.828 7.691,7.863 z m 0.418,25.907 c 0,0.574 -0.453,1.035 -1.012,1.035 l -26.355,0 c -0.563,0 -1.016,-0.461 -1.016,-1.035 l 0,-33.161 c 0,-0.574 0.457,-1.035 1.016,-1.035 l 17.23,0 0,7.254 c 0,1.711 1.368,3.106 3.043,3.106 l 7.094,0 0,23.836 z"
         style="fill:#000000;fill-opacity:1;fill-rule:nonzero;stroke:none"
         id="path4506"
         inkscape:connector-curvature="0" /><text
         transform="translate(9.333343,46.491887)"
         style="font-variant:normal;font-weight:normal;font-size:7.69710398px;font-family:Verdana;-inkscape-font-specification:Verdana;writing-mode:lr-tb;fill:#000000;fill-opacity:1;fill-rule:nonzero;stroke:none"
         id="text4508"><tspan
           x="0 4.7952957 8.0742617 12.738708 17.534002 20.697514 25.315775 32.797359 35.591408 39.593903"
           y="0"
           sodipodi:role="line"
           id="tspan4510">program.cu</tspan></text>
<g
         id="g4512"><path
           d="m 76.707,24.254 62.125,0"
           style="fill:none;stroke:#000000;stroke-width:0.75118101;stroke-linecap:butt;stroke-linejoin:miter;stroke-miterlimit:4;stroke-dasharray:none;stroke-opacity:1"
           id="path4514"
           inkscape:connector-curvature="0" /></g><g
         id="g4516"
         transform="scale(-1,-1)"><path
           d="m -131.32,-24.254 3.007,-3.004 -10.519,3.004 10.519,3.004 -3.007,-3.004 z"
           style="fill:#000000;fill-opacity:1;fill-rule:evenodd;stroke:#000000;stroke-width:0.80125999;stroke-linecap:butt;stroke-linejoin:miter;stroke-miterlimit:4;stroke-dasharray:none;stroke-opacity:1"
           id="path4518"
           inkscape:connector-curvature="0" /></g><text
         transform="translate(86.176069,16.109168)"
         style="font-variant:normal;font-weight:normal;font-size:11.99999905px;font-family:Verdana;-inkscape-font-specification:Verdana;writing-mode:lr-tb;fill:#000000;fill-opacity:1;fill-rule:nonzero;stroke:none"
         id="text4520"><tspan
           x="0 8.3759995 11.663999 18.899998 26.483997"
           y="0"
           sodipodi:role="line"
           id="tspan4522">Clang</tspan></text>
<g
         id="g4524"><path
           d="m 154.691,5.824 65.359,0 0,33.75 -65.359,0 0,-33.75 z"
           style="fill:none;stroke:#000000;stroke-width:1.88503897;stroke-linecap:butt;stroke-linejoin:miter;stroke-miterlimit:4;stroke-dasharray:11.310237, 1.88504;stroke-dashoffset:0;stroke-opacity:1"
           id="path4526"
           inkscape:connector-curvature="0" /></g><text
         transform="translate(164.33537,26.71542)"
         style="font-variant:normal;font-weight:normal;font-size:11.99999905px;font-family:Verdana;-inkscape-font-specification:Verdana;writing-mode:lr-tb;fill:#000000;fill-opacity:1;fill-rule:nonzero;stroke:none"
         id="text4528"><tspan
           x="0 6.6719995 12.707999 20.903997 31.007998 35.219997 40.259998"
           y="0"
           sodipodi:role="line"
           id="tspan4530">LLVM IR</tspan></text>
<g
         id="g4532"><path
           d="m 184.691,44.949 0,62.125"
           style="fill:none;stroke:#0000ff;stroke-width:0.75118101;stroke-linecap:butt;stroke-linejoin:miter;stroke-miterlimit:4;stroke-dasharray:none;stroke-opacity:1"
           id="path4534"
           inkscape:connector-curvature="0" /></g><g
         id="g4536"
         transform="matrix(0,-1,1,0,0,0)"><path
           d="m -99.563,184.691 3.008,-3.003 -10.519,3.003 10.519,3.004 -3.008,-3.004 z"
           style="fill:#0000ff;fill-opacity:1;fill-rule:evenodd;stroke:#0000ff;stroke-width:0.80125999;stroke-linecap:butt;stroke-linejoin:miter;stroke-miterlimit:4;stroke-dasharray:none;stroke-opacity:1"
           id="path4538"
           inkscape:connector-curvature="0" /></g><text
         transform="translate(186.84667,72.345173)"
         style="font-variant:normal;font-weight:normal;font-size:8px;font-family:Verdana;-inkscape-font-specification:Verdana;writing-mode:lr-tb;fill:#0000ff;fill-opacity:1;fill-rule:nonzero;stroke:none"
         id="text4540"><tspan
           x="0 3.3599999 8.4160004 12.576 15.728 19.16 24.216 31.992001 36.751999 41.807999 44.959999"
           y="0"
           sodipodi:role="line"
           id="tspan4542">Instrumenta</tspan></text>
<text
         transform="translate(236.60667,72.345173)"
         style="font-variant:normal;font-weight:normal;font-size:8px;font-family:Verdana;-inkscape-font-specification:Verdana;writing-mode:lr-tb;fill:#0000ff;fill-opacity:1;fill-rule:nonzero;stroke:none"
         id="text4544"><tspan
           x="0"
           y="0"
           id="tspan4546">č</tspan></text>
<text
         transform="translate(240.76667,72.345173)"
         style="font-variant:normal;font-weight:normal;font-size:8px;font-family:Verdana;-inkscape-font-specification:Verdana;writing-mode:lr-tb;fill:#0000ff;fill-opacity:1;fill-rule:nonzero;stroke:none"
         id="text4548"><tspan
           x="0 5.0560002"
           y="0"
           sodipodi:role="line"
           id="tspan4550">ní</tspan><tspan
           x="-39.560623 -34.576626"
           y="9.8078804"
           sodipodi:role="line"
           id="tspan4552">pr</tspan></text>
<text
         transform="translate(209.59804,82.153053)"
         style="font-variant:normal;font-weight:normal;font-size:8px;font-family:Verdana;-inkscape-font-specification:Verdana;writing-mode:lr-tb;fill:#0000ff;fill-opacity:1;fill-rule:nonzero;stroke:none"
         id="text4554"><tspan
           x="0"
           y="0"
           id="tspan4556">ů</tspan></text>
<text
         transform="translate(214.65404,82.153053)"
         style="font-variant:normal;font-weight:normal;font-size:8px;font-family:Verdana;-inkscape-font-specification:Verdana;writing-mode:lr-tb;fill:#0000ff;fill-opacity:1;fill-rule:nonzero;stroke:none"
         id="text4558"><tspan
           x="0 4.1599998 9.2159996 14.064"
           y="0"
           sodipodi:role="line"
           id="tspan4560">chod</tspan></text>
<text
         transform="translate(160.29047,128.47666)"
         style="font-variant:normal;font-weight:normal;font-size:8px;font-family:Verdana;-inkscape-font-specification:Verdana;writing-mode:lr-tb;fill:#0000ff;fill-opacity:1;fill-rule:nonzero;stroke:none"
         id="text4576"><tspan
           x="0 6.7360001 11.584 16.568001 18.76 21.568001 23.784 28.440001 33.223999 37.799999 42.599998 47.655998"
           y="0"
           sodipodi:role="line"
           id="tspan4578">Modifikované</tspan><tspan
           x="10.015624 14.463624 18.487623 23.951624 30.687624 33.495625 36.855625"
           y="9.8078804"
           sodipodi:role="line"
           id="tspan4580">LLVM IR</tspan></text>
<g
         id="g4582"><path
           d="m 154.691,114.574 65.359,0 0,33.75 -65.359,0 0,-33.75 z"
           style="fill:none;stroke:#0000ff;stroke-width:1.88503897;stroke-linecap:butt;stroke-linejoin:miter;stroke-miterlimit:4;stroke-dasharray:11.310237, 1.88504;stroke-dashoffset:0;stroke-opacity:1"
           id="path4584"
           inkscape:connector-curvature="0" /></g><g
         id="g4586"><path
           d="m 180.809,73.324 -26.118,0"
           style="fill:none;stroke:#0000ff;stroke-width:0.487039;stroke-linecap:butt;stroke-linejoin:miter;stroke-miterlimit:4;stroke-dasharray:1.461116, 0.487039;stroke-dashoffset:0;stroke-opacity:1"
           id="path4588"
           inkscape:connector-curvature="0" /></g><g
         id="g4590"
         transform="scale(-1,-1)"><path
           d="m -154.781,-73.324 -3.371,1.949 0,-3.895 3.371,1.946 z"
           style="fill:#ffffff;fill-opacity:1;fill-rule:evenodd;stroke:#0000ff;stroke-width:0.519508;stroke-linecap:butt;stroke-linejoin:miter;stroke-miterlimit:4;stroke-dasharray:none;stroke-opacity:1"
           id="path4592"
           inkscape:connector-curvature="0" /></g><path
         d="m 143.711,71.785 -5.699,-5.828 c -0.117,-0.121 -0.282,-0.191 -0.449,-0.191 l -12.032,0 c -1.047,0 -1.898,0.875 -1.898,1.945 l 0,20.715 c 0,1.074 0.851,1.945 1.898,1.945 l 16.465,0 c 1.047,0 1.902,-0.871 1.902,-1.945 l 0,-16.184 c 0,-0.172 -0.07,-0.336 -0.187,-0.457 z m -1.344,0.457 -4.172,0 c -0.347,0 -0.632,-0.289 -0.632,-0.648 l 0,-4.262 4.804,4.91 z m 0.262,16.184 c 0,0.359 -0.281,0.648 -0.633,0.648 l -16.465,0 c -0.351,0 -0.633,-0.289 -0.633,-0.648 l 0,-20.715 c 0,-0.359 0.282,-0.648 0.633,-0.648 l 10.766,0 0,4.531 c 0,1.07 0.851,1.941 1.898,1.941 l 4.434,0 0,14.891 z"
         style="fill:#0000ff;fill-opacity:1;fill-rule:nonzero;stroke:none"
         id="path4594"
         inkscape:connector-curvature="0" /><text
         transform="translate(117.23344,95.887158)"
         style="font-variant:normal;font-weight:normal;font-size:4.808846px;font-family:Verdana;-inkscape-font-specification:Verdana;writing-mode:lr-tb;fill:#0000ff;fill-opacity:1;fill-rule:nonzero;stroke:none"
         id="text4596"><tspan
           x="0 4.6741982 7.5354619 9.4301472 12.315454 15.311366 18.196672 20.105785 22.991093 24.736704 26.390947 28.891546 31.805708"
           y="0"
           sodipodi:role="line"
           id="tspan4598">metadata.json</tspan></text>
<g
         id="g4600"
         transform="scale(0.903367,1)"><path
           d="m 153.519,132.277 -72.07,0"
           style="fill:none;stroke:#000000;stroke-width:0.80907601;stroke-linecap:butt;stroke-linejoin:miter;stroke-miterlimit:4;stroke-dasharray:none;stroke-opacity:1"
           id="path4602"
           inkscape:connector-curvature="0" /></g><g
         id="g4604"
         transform="scale(0.903367,1)"><path
           d="m 89.539,132.277 3.239,-3.234 -11.329,3.234 11.329,3.239 -3.239,-3.239 z"
           style="fill:#000000;fill-opacity:1;fill-rule:evenodd;stroke:#000000;stroke-width:0.86301398;stroke-linecap:butt;stroke-linejoin:miter;stroke-miterlimit:4;stroke-dasharray:none;stroke-opacity:1"
           id="path4606"
           inkscape:connector-curvature="0" /></g><text
         transform="matrix(0.90336708,0,0,1,96.201461,125.47306)"
         style="font-variant:normal;font-weight:normal;font-size:11.99999905px;font-family:Verdana;-inkscape-font-specification:Verdana;writing-mode:lr-tb;fill:#000000;fill-opacity:1;fill-rule:nonzero;stroke:none"
         id="text4608"><tspan
           x="0 6.6719995 12.707999 20.903997"
           y="0"
           sodipodi:role="line"
           id="tspan4610">LLVM</tspan></text>
<g
         id="g4612"><path
           d="m 0.941,113.77 65.359,0 0,33.75 -65.359,0 0,-33.75 z"
           style="fill:none;stroke:#000000;stroke-width:1.88503897;stroke-linecap:butt;stroke-linejoin:miter;stroke-miterlimit:4;stroke-dasharray:none;stroke-opacity:1"
           id="path4614"
           inkscape:connector-curvature="0" /></g><text
         transform="translate(8.130879,129.0135)"
         style="font-variant:normal;font-weight:normal;font-size:9px;font-family:Verdana;-inkscape-font-specification:Verdana;writing-mode:lr-tb;fill:#000000;fill-opacity:1;fill-rule:nonzero;stroke:none"
         id="text4616"><tspan
           x="0 6.1469998 11.754 17.441999 22.122 25.667999 28.134001 31.68 37.035 39.528 45.216"
           y="0"
           sodipodi:role="line"
           id="tspan4618">Spustitelný</tspan><tspan
           x="9.9052744 14.585274 20.039274 25.727274 31.334274 36.788273"
           y="9.5205507"
           sodipodi:role="line"
           id="tspan4620">soubor</tspan></text>
</g></g></svg>