<?xml version="1.0" encoding="UTF-8" standalone="no"?>
<!-- Created with Inkscape (http://www.inkscape.org/) -->

<svg
   xmlns:dc="http://purl.org/dc/elements/1.1/"
   xmlns:cc="http://creativecommons.org/ns#"
   xmlns:rdf="http://www.w3.org/1999/02/22-rdf-syntax-ns#"
   xmlns:svg="http://www.w3.org/2000/svg"
   xmlns="http://www.w3.org/2000/svg"
   xmlns:sodipodi="http://sodipodi.sourceforge.net/DTD/sodipodi-0.dtd"
   xmlns:inkscape="http://www.inkscape.org/namespaces/inkscape"
   id="svg4494"
   version="1.1"
   inkscape:version="0.91 r13725"
   xml:space="preserve"
   width="310.22824"
   height="186.58136"
   viewBox="0 0 310.22824 186.58136"
   sodipodi:docname="instrumentation-overview.svg"><metadata
     id="metadata4500"><rdf:RDF><cc:Work
         rdf:about=""><dc:format>image/svg+xml</dc:format><dc:type
           rdf:resource="http://purl.org/dc/dcmitype/StillImage" /><dc:title></dc:title></cc:Work></rdf:RDF></metadata><defs
     id="defs4498" /><sodipodi:namedview
     pagecolor="#ffffff"
     bordercolor="#666666"
     borderopacity="1"
     objecttolerance="10"
     gridtolerance="10"
     guidetolerance="10"
     inkscape:pageopacity="0"
     inkscape:pageshadow="2"
     inkscape:window-width="1920"
     inkscape:window-height="1027"
     id="namedview4496"
     showgrid="false"
     inkscape:zoom="2.3595531"
     inkscape:cx="135.04443"
     inkscape:cy="42.959452"
     inkscape:window-x="0"
     inkscape:window-y="0"
     inkscape:window-maximized="1"
     inkscape:current-layer="g4504"><inkscape:grid
       type="xygrid"
       id="grid5008" /></sodipodi:namedview><g
     id="g4502"
     inkscape:groupmode="layer"
     inkscape:label="instrumentation-overview"
     transform="matrix(1.25,0,0,1.25,0,-3.75e-6)"><g
       id="g4504"><path
         d="M 41.901798,12.747298 35.447408,6.3105542 C 35.3116,6.1780655 35.129109,6.1028506 34.938837,6.1028506 l -13.621769,0 c -1.185486,0 -2.152406,0.9626133 -2.152406,2.1453512 l 0,22.8825962 c 0,1.182738 0.96692,2.145351 2.152406,2.145351 l 18.641693,0 c 1.185486,0 2.149577,-0.962613 2.149577,-2.145351 l 0,-17.877007 c 0,-0.191142 -0.07427,-0.371934 -0.20654,-0.506493 z m -1.522882,0.506493 -4.722138,0 c -0.394691,0 -0.717941,-0.320871 -0.717941,-0.714197 l 0,-4.7116299 5.440079,5.4258269 z m 0.295664,17.877007 c 0,0.396086 -0.320421,0.714197 -0.715819,0.714197 l -18.641693,0 c -0.398227,0 -0.718648,-0.318111 -0.718648,-0.714197 l 0,-22.8825962 c 0,-0.3960861 0.32325,-0.714197 0.718648,-0.714197 l 12.187303,0 0,5.0055892 c 0,1.180668 0.967628,2.143281 2.152407,2.143281 l 5.017802,0 0,16.447923 z"
         style="fill:#000000;fill-opacity:1;fill-rule:nonzero;stroke:none;stroke-width:0.80000001;stroke-miterlimit:4;stroke-dasharray:none"
         id="path4506"
         inkscape:connector-curvature="0" /><text
         style="font-variant:normal;font-weight:normal;font-size:7.69710398px;font-family:Verdana;-inkscape-font-specification:Verdana;writing-mode:lr-tb;fill:#000000;fill-opacity:1;fill-rule:nonzero;stroke:none"
         id="text4508"
         x="15.097146"
         y="40.728085"><tspan
           sodipodi:role="line"
           id="tspan4510"
           style="font-size:6px"
           x="15.097146"
           y="40.728085">program.cu</tspan></text>
<g
         id="g4512"><path
           d="m 76.707,24.254 62.125,0"
           style="fill:none;stroke:#000000;stroke-width:0.75118101;stroke-linecap:butt;stroke-linejoin:miter;stroke-miterlimit:4;stroke-dasharray:none;stroke-opacity:1"
           id="path4514"
           inkscape:connector-curvature="0" /></g><g
         id="g4516"
         transform="scale(-1,-1)"><path
           d="m -131.32,-24.254 3.007,-3.004 -10.519,3.004 10.519,3.004 -3.007,-3.004 z"
           style="fill:#000000;fill-opacity:1;fill-rule:evenodd;stroke:#000000;stroke-width:0.80125999;stroke-linecap:butt;stroke-linejoin:miter;stroke-miterlimit:4;stroke-dasharray:none;stroke-opacity:1"
           id="path4518"
           inkscape:connector-curvature="0" /></g><text
         style="font-variant:normal;font-weight:normal;font-size:11.99999905px;font-family:Verdana;-inkscape-font-specification:Verdana;writing-mode:lr-tb;fill:#000000;fill-opacity:1;fill-rule:nonzero;stroke:none"
         id="text4520"
         x="90.922729"
         y="18.821547"><tspan
           sodipodi:role="line"
           id="tspan4522"
           style="font-size:9px"
           x="90.922729"
           y="18.821547">Clang</tspan></text>
<g
         id="g4524"
         style="stroke:#000000;stroke-width:0.80000001;stroke-miterlimit:4;stroke-dasharray:4.8, 0.8;stroke-dashoffset:0;stroke-opacity:1"
         transform="matrix(0.91866051,0,0,0.81333886,15.410147,4.4767639)"><path
           d="m 154.691,5.824 65.359,0 0,33.75 -65.359,0 0,-33.75 z"
           style="fill:none;stroke:#000000;stroke-width:0.80000001;stroke-linecap:butt;stroke-linejoin:miter;stroke-miterlimit:4;stroke-dasharray:4.8, 0.8;stroke-dashoffset:0;stroke-opacity:1"
           id="path4526"
           inkscape:connector-curvature="0" /></g><text
         style="font-variant:normal;font-weight:normal;font-size:11.99999905px;font-family:Verdana;-inkscape-font-specification:Verdana;writing-mode:lr-tb;fill:#000000;fill-opacity:1;fill-rule:nonzero;stroke:none"
         id="text4528"
         x="172.13345"
         y="26.376373"><tspan
           sodipodi:role="line"
           id="tspan4530"
           style="font-size:8px"
           x="172.13345"
           y="26.376373">LLVM IR</tspan></text>
<g
         id="g4532"
         style="stroke:#0000a4;stroke-opacity:1"><path
           d="m 184.691,44.949 0,62.125"
           style="fill:none;stroke:#0000a4;stroke-width:0.75118101;stroke-linecap:butt;stroke-linejoin:miter;stroke-miterlimit:4;stroke-dasharray:none;stroke-opacity:1"
           id="path4534"
           inkscape:connector-curvature="0" /></g><g
         id="g4536"
         transform="matrix(0,-1,1,0,0,0)"
         style="stroke:#0000a4;stroke-opacity:1"><path
           d="m -99.563,184.691 3.008,-3.003 -10.519,3.003 10.519,3.004 -3.008,-3.004 z"
           style="fill:#0000ff;fill-opacity:1;fill-rule:evenodd;stroke:#0000a4;stroke-width:0.80125999;stroke-linecap:butt;stroke-linejoin:miter;stroke-miterlimit:4;stroke-dasharray:none;stroke-opacity:1"
           id="path4538"
           inkscape:connector-curvature="0" /></g><text
         transform="translate(186.84667,72.345173)"
         style="font-variant:normal;font-weight:normal;font-size:8px;font-family:Verdana;-inkscape-font-specification:Verdana;writing-mode:lr-tb;fill:#0000ff;fill-opacity:1;fill-rule:nonzero;stroke:none"
         id="text4540"><tspan
           sodipodi:role="line"
           id="tspan4542"
           style="font-size:7px;fill:#0000a4;fill-opacity:1"
           x="0"
           y="0" /></text>
<text
         transform="translate(236.60667,72.345173)"
         style="font-variant:normal;font-weight:normal;font-size:8px;font-family:Verdana;-inkscape-font-specification:Verdana;writing-mode:lr-tb;fill:#0000ff;fill-opacity:1;fill-rule:nonzero;stroke:none"
         id="text4544"><tspan
           x="0"
           y="0"
           id="tspan4546"
           style="fill:#0000a4;fill-opacity:1" /></text>
<text
         transform="translate(240.76667,72.345173)"
         style="font-variant:normal;font-weight:normal;font-size:8px;font-family:Verdana;-inkscape-font-specification:Verdana;writing-mode:lr-tb;fill:#0000ff;fill-opacity:1;fill-rule:nonzero;stroke:none"
         id="text4548"><tspan
           x="0"
           sodipodi:role="line"
           id="tspan4550"
           style="fill:#0000a4;fill-opacity:1"
           y="0" /><tspan
           x="0"
           sodipodi:role="line"
           id="tspan4552"
           style="fill:#0000a4;fill-opacity:1"
           y="10" /></text>
<text
         transform="translate(209.59804,82.153053)"
         style="font-variant:normal;font-weight:normal;font-size:8px;font-family:Verdana;-inkscape-font-specification:Verdana;writing-mode:lr-tb;fill:#0000ff;fill-opacity:1;fill-rule:nonzero;stroke:none"
         id="text4554"><tspan
           x="0"
           y="0"
           id="tspan4556"
           style="fill:#0000a4;fill-opacity:1" /></text>
<text
         transform="translate(214.65404,82.153053)"
         style="font-variant:normal;font-weight:normal;font-size:8px;font-family:Verdana;-inkscape-font-specification:Verdana;writing-mode:lr-tb;fill:#0000ff;fill-opacity:1;fill-rule:nonzero;stroke:none"
         id="text4558"><tspan
           x="0"
           sodipodi:role="line"
           id="tspan4560"
           style="fill:#0000a4;fill-opacity:1"
           y="0" /></text>
<text
         style="font-variant:normal;font-weight:normal;font-size:8px;font-family:Verdana;-inkscape-font-specification:Verdana;writing-mode:lr-tb;fill:#0000ff;fill-opacity:1;fill-rule:nonzero;stroke:none"
         id="text4576"
         x="160.96857"
         y="129.83286"><tspan
           x="160.96857 167.70456 172.55257 177.53656 179.72856 182.53656 184.75256 189.40857 194.19257 198.76857 203.56856 208.62456"
           y="129.83286"
           sodipodi:role="line"
           id="tspan4578"
           style="fill:#0000a4;fill-opacity:1">Modifikované</tspan><tspan
           x="170.98419 175.43219 179.45619 184.92018 191.65619 194.46419 197.82419"
           y="139.64073"
           sodipodi:role="line"
           id="tspan4580"
           style="fill:#0000a4;fill-opacity:1">LLVM IR</tspan></text>
<g
         id="g4582"
         style="stroke:#0000a4;stroke-width:0.80000001;stroke-miterlimit:4;stroke-dasharray:4.8, 0.8;stroke-dashoffset:0;stroke-opacity:1"
         transform="matrix(0.91822597,0,0,0.8820186,15.322041,14.830441)"><path
           d="m 154.691,114.574 65.359,0 0,33.75 -65.359,0 0,-33.75 z"
           style="fill:none;stroke:#0000a4;stroke-width:0.80000001;stroke-linecap:butt;stroke-linejoin:miter;stroke-miterlimit:4;stroke-dasharray:4.8, 0.8;stroke-dashoffset:0;stroke-opacity:1"
           id="path4584"
           inkscape:connector-curvature="0" /></g><g
         id="g4586"
         style="stroke:#0000a4;stroke-opacity:1"><path
           d="m 180.809,73.324 -26.118,0"
           style="fill:none;stroke:#0000a4;stroke-width:0.487039;stroke-linecap:butt;stroke-linejoin:miter;stroke-miterlimit:4;stroke-dasharray:1.461116, 0.48703900000000000;stroke-dashoffset:0;stroke-opacity:1"
           id="path4588"
           inkscape:connector-curvature="0" /></g><g
         id="g4590"
         transform="scale(-1,-1)"
         style="stroke:#0000a4;stroke-opacity:1"><path
           d="m -154.781,-73.324 -3.371,1.949 0,-3.895 3.371,1.946 z"
           style="fill:#ffffff;fill-opacity:1;fill-rule:evenodd;stroke:#0000a4;stroke-width:0.519508;stroke-linecap:butt;stroke-linejoin:miter;stroke-miterlimit:4;stroke-dasharray:none;stroke-opacity:1"
           id="path4592"
           inkscape:connector-curvature="0" /></g><path
         d="m 143.711,71.785 -5.699,-5.828 c -0.117,-0.121 -0.282,-0.191 -0.449,-0.191 l -12.032,0 c -1.047,0 -1.898,0.875 -1.898,1.945 l 0,20.715 c 0,1.074 0.851,1.945 1.898,1.945 l 16.465,0 c 1.047,0 1.902,-0.871 1.902,-1.945 l 0,-16.184 c 0,-0.172 -0.07,-0.336 -0.187,-0.457 z m -1.344,0.457 -4.172,0 c -0.347,0 -0.632,-0.289 -0.632,-0.648 l 0,-4.262 4.804,4.91 z m 0.262,16.184 c 0,0.359 -0.281,0.648 -0.633,0.648 l -16.465,0 c -0.351,0 -0.633,-0.289 -0.633,-0.648 l 0,-20.715 c 0,-0.359 0.282,-0.648 0.633,-0.648 l 10.766,0 0,4.531 c 0,1.07 0.851,1.941 1.898,1.941 l 4.434,0 0,14.891 z"
         style="fill:#0000a4;fill-opacity:1;fill-rule:nonzero;stroke:none;stroke-width:0.8;stroke-miterlimit:4;stroke-dasharray:none"
         id="path4594"
         inkscape:connector-curvature="0" /><text
         transform="translate(117.23344,95.887158)"
         style="font-variant:normal;font-weight:normal;font-size:4.808846px;font-family:Verdana;-inkscape-font-specification:Verdana;writing-mode:lr-tb;fill:#0000a4;fill-opacity:1;fill-rule:nonzero;stroke:none;"
         id="text4596"><tspan
           x="0 4.6741982 7.5354619 9.4301472 12.315454 15.311366 18.196672 20.105785 22.991093 24.736704 26.390947 28.891546 31.805708"
           y="0"
           sodipodi:role="line"
           id="tspan4598">metadata.json</tspan></text>
<g
         id="g4600"
         transform="scale(0.903367,1)"><path
           d="m 153.519,132.277 -72.07,0"
           style="fill:none;stroke:#000000;stroke-width:0.80907601;stroke-linecap:butt;stroke-linejoin:miter;stroke-miterlimit:4;stroke-dasharray:none;stroke-opacity:1"
           id="path4602"
           inkscape:connector-curvature="0" /></g><g
         id="g4604"
         transform="scale(0.903367,1)"><path
           d="m 89.539,132.277 3.239,-3.234 -11.329,3.234 11.329,3.239 -3.239,-3.239 z"
           style="fill:#000000;fill-opacity:1;fill-rule:evenodd;stroke:#000000;stroke-width:0.86301398;stroke-linecap:butt;stroke-linejoin:miter;stroke-miterlimit:4;stroke-dasharray:none;stroke-opacity:1"
           id="path4606"
           inkscape:connector-curvature="0" /></g><text
         transform="scale(0.95045625,1.0521263)"
         style="font-variant:normal;font-weight:normal;font-size:11.40547371px;font-family:Verdana;-inkscape-font-specification:Verdana;writing-mode:lr-tb;fill:#000000;fill-opacity:1;fill-rule:nonzero;stroke:none"
         id="text4608"
         x="103.71313"
         y="121.19016"><tspan
           sodipodi:role="line"
           id="tspan4610"
           style="font-size:9px"
           x="103.71313"
           y="121.19016">LLVM</tspan></text>
<g
         id="g4612"
         style="stroke-width:0.80000001;stroke-miterlimit:4;stroke-dasharray:none"
         transform="matrix(0.84592125,0,0,0.90253369,5.1802045,12.733485)"><path
           d="m 0.941,113.77 65.359,0 0,33.75 -65.359,0 0,-33.75 z"
           style="fill:none;stroke:#000000;stroke-width:0.80000001;stroke-linecap:butt;stroke-linejoin:miter;stroke-miterlimit:4;stroke-dasharray:none;stroke-opacity:1"
           id="path4614"
           inkscape:connector-curvature="0" /></g><text
         style="font-variant:normal;font-weight:normal;font-size:9px;font-family:Verdana;-inkscape-font-specification:Verdana;writing-mode:lr-tb;fill:#000000;fill-opacity:1;fill-rule:nonzero;stroke:none"
         id="text4616"
         x="11.521352"
         y="129.35255"><tspan
           sodipodi:role="line"
           id="tspan4620"
           style="font-size:8px"
           x="11.521352"
           y="129.35255">Spustitelný</tspan><tspan
           sodipodi:role="line"
           style="font-size:8px"
           x="11.521352"
           y="139.35255"
           id="tspan5000">   soubor</tspan></text>
<text
         xml:space="preserve"
         style="font-style:normal;font-weight:normal;font-size:32px;line-height:125%;font-family:sans-serif;letter-spacing:0px;word-spacing:0px;fill:#000000;fill-opacity:1;stroke:none;stroke-width:1px;stroke-linecap:butt;stroke-linejoin:miter;stroke-opacity:1"
         x="188.51027"
         y="71.962318"
         id="text5002"
         sodipodi:linespacing="125%"><tspan
           sodipodi:role="line"
           id="tspan5004"
           x="188.51027"
           y="71.962318"
           style="font-size:7px;fill:#0000a4;fill-opacity:1;stroke:none;stroke-opacity:1">Instrumentační</tspan><tspan
           sodipodi:role="line"
           x="188.51027"
           y="80.712318"
           id="tspan5006"
           style="font-size:7px;fill:#0000a4;fill-opacity:1;stroke:none;stroke-opacity:1">průchod</tspan></text>
</g></g></svg>